<?xml version="1.0" standalone="no"?>
<!DOCTYPE svg PUBLIC "-//W3C//DTD SVG 20010904//EN"
 "http://www.w3.org/TR/2001/REC-SVG-20010904/DTD/svg10.dtd">
<svg version="1.0" xmlns="http://www.w3.org/2000/svg"
 width="410.000000pt" height="410.000000pt" viewBox="0 0 410.000000 410.000000"
 preserveAspectRatio="xMidYMid meet">
<metadata>
Created by potrace 1.14, written by Peter Selinger 2001-2017
</metadata>
<g transform="translate(0.000000,410.000000) scale(0.100000,-0.100000)"
fill="#000000" stroke="none">
<path d="M1865 4000 c6 -9 0 -11 -24 -8 -17 2 -31 2 -31 -2 0 -3 -11 -7 -25
-8 -48 -3 -55 -5 -55 -15 0 -6 -3 -7 -7 -4 -3 4 -12 2 -20 -4 -7 -6 -13 -8
-13 -4 0 4 -7 2 -15 -5 -8 -7 -15 -9 -15 -6 0 4 -14 -3 -32 -15 -18 -14 -28
-17 -24 -8 4 7 1 6 -8 -5 -9 -11 -20 -15 -28 -10 -7 4 -10 4 -6 -1 8 -8 -20
-40 -28 -32 -3 3 -20 -10 -37 -29 -18 -19 -38 -34 -46 -34 -8 0 -12 -3 -8 -6
10 -10 -22 -36 -34 -28 -7 4 -9 3 -6 -3 8 -12 -17 -65 -38 -83 -8 -7 -12 -17
-8 -24 4 -6 -1 -5 -10 2 -14 12 -16 11 -12 -7 2 -12 -1 -21 -6 -21 -6 0 -7 -4
-4 -10 3 -5 1 -10 -5 -10 -6 0 -8 -4 -5 -10 3 -5 1 -10 -6 -10 -8 0 -9 -3 0
-14 9 -10 8 -16 -4 -26 -8 -7 -12 -16 -9 -21 3 -5 0 -9 -6 -9 -6 0 -9 -4 -6
-9 4 -5 0 -12 -6 -14 -10 -4 -9 -6 1 -6 11 -1 11 -4 0 -18 -12 -15 -12 -16 1
-8 13 7 13 6 2 -7 -10 -12 -10 -18 -1 -23 8 -6 8 -10 -2 -15 -9 -6 -10 -12 -1
-22 7 -9 8 -19 2 -28 -13 -20 -12 -33 1 -24 8 5 9 2 2 -11 -7 -12 -6 -26 3
-43 10 -19 10 -30 2 -39 -8 -9 -7 -13 2 -13 7 0 10 -7 6 -15 -3 -8 -2 -15 2
-15 4 0 8 -20 7 -44 0 -25 4 -42 9 -38 5 3 7 -2 3 -11 -3 -10 -2 -17 4 -17 6
0 7 -5 4 -10 -4 -6 -1 -18 7 -27 7 -9 8 -14 2 -10 -7 4 -14 0 -18 -8 -3 -8 0
-17 6 -21 7 -5 8 -2 3 6 -6 9 -4 11 4 6 7 -5 10 -14 7 -22 -3 -8 0 -14 6 -14
9 0 9 -3 1 -11 -7 -7 -8 -18 -4 -28 22 -44 28 -78 16 -94 -7 -10 -17 -17 -23
-17 -7 0 -9 -7 -5 -17 6 -15 4 -16 -8 -6 -11 9 -19 7 -38 -13 -13 -13 -27 -21
-32 -18 -5 3 -9 -2 -9 -10 0 -10 -6 -13 -15 -10 -8 4 -15 1 -15 -5 0 -6 -7
-11 -16 -11 -8 0 -13 -4 -9 -9 3 -5 -4 -12 -15 -16 -11 -3 -20 -11 -20 -16 0
-6 -4 -8 -9 -5 -5 3 -12 -1 -15 -10 -3 -8 -11 -12 -16 -9 -6 4 -9 1 -8 -7 2
-7 -3 -12 -11 -10 -9 2 -11 -3 -7 -13 3 -9 2 -13 -4 -10 -6 3 -10 1 -10 -5 0
-7 -7 -9 -16 -6 -8 3 -13 2 -10 -3 3 -4 -10 -22 -29 -39 -19 -16 -35 -35 -35
-42 0 -6 -5 -8 -12 -4 -8 5 -9 2 -5 -10 4 -10 3 -15 -3 -11 -6 3 -10 1 -10 -5
0 -6 -5 -8 -12 -4 -7 4 -8 3 -4 -5 4 -6 0 -14 -8 -17 -9 -3 -16 -12 -16 -20 0
-7 -6 -17 -12 -21 -7 -4 -24 -21 -38 -38 -18 -21 -20 -25 -5 -15 15 12 14 8
-5 -17 -14 -18 -31 -30 -39 -27 -11 3 -11 1 -2 -10 9 -11 8 -15 -4 -20 -8 -3
-14 -10 -13 -15 2 -5 -6 -17 -17 -26 -11 -9 -14 -14 -7 -10 18 9 15 -6 -5 -21
-10 -7 -18 -18 -19 -26 -2 -26 -17 -58 -26 -58 -6 0 -8 -7 -4 -15 3 -8 1 -15
-4 -15 -6 0 -10 -9 -10 -20 0 -11 -5 -20 -11 -20 -5 0 -8 -4 -4 -9 3 -5 0 -13
-6 -16 -5 -4 -8 -13 -5 -21 3 -8 1 -14 -4 -14 -5 0 -6 -7 -3 -17 4 -10 2 -14
-4 -10 -7 4 -10 -4 -8 -23 1 -16 -1 -28 -5 -25 -4 3 -11 -2 -14 -11 -4 -10 -2
-13 7 -8 9 5 9 4 0 -7 -7 -7 -13 -23 -13 -35 0 -13 -4 -25 -9 -28 -4 -3 -7
-21 -5 -41 1 -19 -1 -33 -6 -30 -10 6 -8 -15 3 -32 4 -6 2 -15 -4 -19 -8 -5
-9 -3 -4 6 5 9 4 11 -3 6 -9 -5 -9 -13 -1 -28 8 -15 8 -19 0 -14 -6 4 -11 3
-11 -3 0 -5 5 -13 10 -16 8 -5 7 -12 -1 -22 -10 -12 -10 -16 2 -24 8 -5 9 -9
3 -9 -6 0 -11 -13 -12 -30 -1 -16 -2 -36 -3 -42 0 -7 2 -23 5 -36 3 -13 0 -22
-7 -22 -7 0 -5 -5 4 -10 17 -10 19 -66 4 -91 -5 -7 -4 -10 3 -5 7 4 10 -5 8
-29 -2 -19 0 -32 5 -29 5 3 7 -9 5 -25 -2 -17 1 -31 7 -31 6 0 7 -3 4 -7 -4
-3 -1 -13 6 -21 9 -13 9 -14 0 -8 -16 9 -17 -6 -1 -22 7 -7 8 -12 3 -12 -6 0
-3 -5 5 -10 13 -9 13 -10 0 -10 -12 0 -12 -2 -2 -9 7 -4 14 -22 14 -39 1 -17
5 -29 10 -26 7 4 13 -26 9 -48 0 -5 5 -8 11 -8 10 0 9 -3 -1 -9 -11 -7 -9 -10
9 -16 15 -5 19 -10 11 -15 -10 -5 -9 -10 2 -21 7 -8 12 -20 9 -27 -2 -6 1 -12
7 -12 6 0 11 -7 11 -15 0 -8 6 -15 13 -15 8 0 7 -4 -3 -10 -10 -6 -11 -10 -2
-10 6 0 12 -7 12 -15 0 -9 7 -18 16 -22 8 -3 13 -12 10 -19 -3 -8 -1 -14 4
-14 6 0 10 -7 10 -15 0 -8 5 -15 12 -15 6 0 8 -3 5 -7 -4 -3 1 -12 11 -20 10
-9 11 -11 2 -7 -13 7 -13 5 -1 -9 7 -9 18 -14 25 -10 6 4 4 -2 -4 -12 -8 -10
-10 -16 -3 -12 8 5 19 -5 30 -27 10 -19 23 -36 28 -38 6 -2 9 -7 7 -11 -1 -4
5 -10 13 -13 8 -4 15 -11 15 -16 0 -13 147 -158 161 -158 6 0 7 -5 4 -10 -3
-6 3 -10 14 -10 19 0 26 -11 22 -33 -1 -5 3 -6 8 -3 5 4 16 -1 24 -9 9 -8 20
-15 26 -15 6 0 11 -4 11 -10 0 -5 7 -10 15 -10 8 0 15 -7 15 -15 0 -8 6 -12
13 -9 7 2 22 -4 32 -16 10 -11 25 -20 32 -20 8 0 24 -10 35 -23 11 -12 17 -16
13 -10 -3 7 -2 13 3 13 6 0 12 -6 15 -14 3 -8 16 -20 28 -26 17 -10 20 -9 13
2 -4 7 3 4 16 -7 14 -12 20 -14 15 -5 -5 9 0 8 13 -4 12 -11 22 -15 22 -10 0
5 4 5 8 -1 8 -11 69 -36 90 -38 6 0 12 -3 12 -7 0 -7 9 -9 55 -12 14 -1 25 -5
25 -9 0 -4 7 -10 16 -13 8 -3 12 -2 9 4 -3 6 -1 10 4 10 6 0 11 -5 11 -11 0
-5 4 -8 9 -4 5 3 12 1 16 -5 4 -6 10 -8 15 -5 5 3 19 1 30 -5 15 -8 20 -8 20
2 0 9 3 10 8 2 4 -6 15 -10 25 -8 9 1 17 -2 17 -7 0 -11 23 -7 32 6 5 6 8 6 8
-2 0 -6 13 -10 30 -9 17 1 30 0 30 -3 0 -10 75 -6 82 4 5 6 8 4 8 -5 0 -13 1
-13 10 0 7 11 10 11 10 2 0 -7 3 -11 8 -8 4 2 30 5 57 7 28 1 56 7 64 13 12 9
13 8 6 -3 -6 -11 -4 -13 11 -7 10 5 29 10 41 11 13 2 42 7 65 11 24 5 48 9 53
9 6 0 16 4 23 8 6 5 12 5 12 1 0 -3 7 -1 15 6 12 10 15 10 15 -1 0 -11 2 -11
8 -1 8 12 40 23 75 25 9 1 17 4 17 8 0 7 91 44 103 41 4 -1 7 3 7 10 0 6 3 8
7 5 3 -4 12 -2 20 4 7 6 13 8 13 5 0 -4 10 2 22 13 11 11 25 18 30 15 4 -3 8
0 8 6 0 6 5 8 10 5 6 -3 10 -2 10 4 0 5 14 12 30 16 17 4 28 11 25 16 -3 4 6
11 20 15 14 3 24 9 21 12 -8 7 44 33 55 26 5 -3 6 2 3 10 -6 15 6 21 31 16 5
-1 7 1 3 5 -8 8 15 35 29 35 4 0 14 9 21 20 7 12 18 18 25 14 7 -4 9 -4 5 1
-4 4 20 33 53 66 32 32 59 62 59 66 0 14 38 42 46 35 4 -4 4 3 1 16 -3 12 -1
20 3 17 5 -3 17 7 26 22 10 15 27 39 38 52 13 15 15 21 6 17 -8 -4 -7 -1 4 8
10 8 15 19 12 25 -4 5 3 15 14 21 11 6 20 17 20 25 0 8 4 15 10 15 5 0 6 7 3
17 -4 10 -2 14 4 10 9 -6 25 30 22 49 0 4 4 10 11 14 10 6 17 24 19 53 1 5 5
5 11 2 6 -3 7 1 4 9 -3 9 -1 16 5 16 6 0 8 7 5 15 -4 9 0 15 7 15 12 0 12 2 1
9 -11 6 -10 10 4 15 16 6 16 8 4 16 -10 6 -11 10 -3 10 7 0 10 7 7 15 -5 12
-2 14 12 8 16 -6 17 -4 7 8 -10 12 -9 20 4 39 9 13 11 20 5 16 -18 -11 -14 5
6 27 16 20 16 20 -2 13 -19 -7 -19 -6 -3 12 10 11 17 23 16 28 -1 5 -1 22 0
37 1 20 5 26 14 21 9 -6 9 -4 -1 8 -10 13 -10 17 0 20 10 4 10 8 -1 21 -7 10
-9 17 -3 17 5 0 10 11 10 25 0 13 -4 22 -9 19 -5 -3 -6 2 -3 10 4 11 0 16 -11
16 -9 0 -13 -4 -10 -10 4 -6 -2 -7 -17 -2 -13 5 -172 8 -355 7 -221 0 -329 3
-325 10 3 6 0 6 -9 -1 -8 -6 -37 -10 -64 -9 -37 1 -55 -4 -70 -17 -17 -16 -17
-18 -2 -12 15 5 16 3 7 -21 -8 -20 -7 -31 2 -43 11 -13 11 -14 -1 -7 -11 6
-13 1 -9 -23 2 -17 0 -34 -6 -36 -7 -3 -6 -5 2 -5 10 -1 10 -6 2 -21 -6 -11
-8 -20 -4 -20 3 0 0 -8 -7 -17 -10 -11 -10 -14 -1 -9 15 9 16 -6 0 -22 -7 -7
-8 -12 -2 -12 12 0 11 -25 -1 -53 -4 -10 -8 -33 -8 -52 -1 -19 -4 -35 -7 -35
-4 0 -7 -13 -8 -30 -3 -52 -5 -60 -16 -60 -6 0 -5 -5 2 -12 9 -9 7 -17 -11
-37 -12 -13 -15 -21 -7 -17 9 5 8 2 -2 -7 -21 -16 -24 -31 -5 -21 6 3 -1 -5
-17 -20 -31 -28 -46 -33 -46 -15 0 5 -3 8 -7 6 -5 -3 -13 1 -20 8 -10 11 -10
15 0 18 7 3 4 6 -6 6 -10 1 -16 5 -12 10 3 5 0 13 -6 16 -5 4 -8 13 -5 21 3 8
1 14 -4 14 -5 0 -6 7 -3 17 4 11 3 14 -5 9 -7 -4 -12 -2 -12 3 0 6 6 11 13 11
9 0 9 2 1 8 -7 4 -14 21 -15 37 -2 17 -8 33 -14 37 -6 5 -4 8 5 8 13 0 13 1 0
10 -13 9 -13 10 0 10 11 0 12 2 3 8 -7 4 -14 25 -15 45 -2 20 -7 37 -13 37 -5
0 -4 4 3 9 8 4 14 12 14 16 0 4 -6 12 -14 16 -10 7 -10 9 2 9 13 0 13 2 1 9
-13 8 -13 12 0 27 9 11 9 15 2 10 -9 -5 -13 -1 -13 11 0 11 6 25 13 32 10 10
9 11 -3 6 -12 -4 -15 5 -14 54 1 33 5 65 9 72 5 7 4 10 -1 6 -6 -3 -9 29 -8
76 0 48 -4 85 -10 89 -7 5 -7 8 2 8 6 0 12 7 12 16 0 9 -5 12 -12 8 -10 -6
-10 -5 -1 7 7 9 11 42 10 79 -1 36 2 70 6 77 4 6 3 15 -3 18 -8 5 -8 11 0 20
7 9 8 15 1 19 -6 4 -8 13 -5 21 4 8 11 12 18 8 7 -4 7 -2 -1 8 -10 12 -10 18
0 29 10 10 9 11 -2 5 -10 -6 -12 -4 -5 6 14 24 16 51 2 43 -10 -6 -10 -5 -1 7
6 8 13 26 15 39 2 14 7 31 12 39 6 10 5 12 -2 7 -7 -4 -12 -3 -12 3 0 5 5 13
10 16 6 4 8 11 5 16 -4 5 0 9 7 9 9 0 9 3 -2 10 -8 5 -10 10 -4 10 6 0 10 13
9 30 -1 16 2 27 7 24 4 -3 8 6 8 20 0 14 5 26 10 26 6 0 9 3 9 8 -3 19 2 33
10 28 5 -3 12 5 15 18 4 18 11 22 31 19 22 -5 57 -33 41 -33 -4 0 0 -7 8 -16
14 -13 21 -42 17 -66 0 -5 3 -8 7 -8 7 0 13 -29 15 -78 1 -14 6 -21 13 -18 8
3 11 -1 7 -9 -3 -8 -10 -12 -17 -8 -6 4 -5 -1 2 -10 8 -9 11 -20 8 -26 -4 -5
1 -17 10 -25 14 -15 14 -16 -3 -16 -17 -1 -17 -1 0 -11 12 -7 15 -15 9 -22 -7
-11 -9 -33 -2 -39 3 -3 9 -58 11 -105 0 -18 6 -33 12 -33 6 0 3 -6 -8 -13 -14
-11 -15 -16 -5 -22 9 -6 11 -4 5 5 -5 9 -4 11 3 6 9 -5 9 -13 1 -28 -8 -15 -8
-22 1 -28 9 -6 9 -9 1 -15 -19 -11 8 -37 30 -30 11 4 19 2 19 -4 0 -6 5 -11
11 -11 5 0 8 4 5 8 -6 10 40 10 50 0 4 -4 14 -2 22 5 18 14 22 13 33 -5 5 -7
9 -8 9 -3 0 12 99 13 118 2 6 -5 12 -4 12 0 0 11 144 8 161 -3 8 -4 10 -3 5 4
-4 7 -3 12 3 12 5 0 13 -5 16 -10 4 -6 13 -7 23 -2 15 7 68 8 82 2 3 -1 10 -1
15 0 31 7 55 6 55 -1 0 -5 12 -4 27 2 20 7 29 7 31 -1 3 -8 8 -7 19 1 9 8 17
9 21 3 9 -12 42 -14 42 -3 0 10 22 8 30 -2 3 -4 13 4 23 17 10 14 15 24 10 23
-19 -3 -23 2 -13 20 7 13 7 22 0 26 -5 3 -10 22 -10 41 0 19 -4 34 -8 34 -5 0
-8 10 -7 23 2 12 -4 32 -11 44 -9 15 -10 24 -3 28 7 5 5 13 -5 24 -9 10 -13
21 -9 24 3 4 -2 16 -12 27 -11 12 -13 20 -6 20 7 0 9 5 6 10 -4 6 -9 8 -13 6
-4 -2 -8 10 -9 27 -1 17 -6 33 -10 36 -5 3 -9 13 -11 21 -2 8 -8 17 -13 18 -5
2 -7 8 -3 13 3 5 -1 9 -8 9 -9 0 -9 3 2 10 12 8 12 10 -5 10 -17 0 -17 2 -5
10 13 9 13 10 0 10 -18 0 -45 50 -27 50 7 0 6 4 -3 9 -8 6 -17 8 -21 5 -4 -2
-6 4 -5 13 2 10 -5 25 -15 34 -10 9 -16 19 -12 22 3 4 -2 9 -11 13 -9 3 -16
12 -16 20 0 8 -5 14 -11 14 -5 0 -8 4 -4 9 3 5 -4 16 -16 25 -12 8 -18 19 -15
24 3 6 -3 13 -13 17 -11 3 -23 15 -26 26 -4 10 -11 19 -16 19 -6 0 -7 5 -3 12
4 7 3 8 -4 4 -6 -4 -18 5 -26 21 -8 15 -15 24 -16 20 0 -4 -6 -2 -14 5 -8 7
-12 16 -9 21 2 4 -2 7 -10 7 -7 0 -20 11 -27 25 -7 14 -19 25 -25 25 -7 0 -26
14 -43 30 -18 17 -36 30 -41 30 -6 0 -14 6 -18 13 -4 8 -24 22 -43 33 -19 10
-43 27 -54 37 -11 9 -26 17 -33 17 -7 0 -13 5 -13 11 0 6 -7 8 -16 5 -14 -5
-15 -4 -4 9 9 11 9 15 1 15 -7 0 -9 5 -6 10 4 6 12 7 18 3 7 -4 6 0 -2 10 -11
14 -11 20 0 34 12 15 12 16 -1 8 -12 -7 -13 -6 -4 6 6 8 11 30 13 49 1 19 5
37 9 40 13 9 12 30 -1 30 -6 0 -4 5 6 11 13 8 15 14 7 30 -8 14 -7 19 1 19 9
0 9 3 0 14 -8 10 -8 16 3 25 8 7 12 21 8 33 -4 16 -2 19 9 13 12 -8 12 -6 0 8
-7 9 -9 17 -4 17 5 0 9 10 8 23 -1 12 3 28 9 36 9 12 8 13 -4 6 -13 -8 -13 -7
-1 8 11 14 11 17 0 17 -11 0 -11 2 0 9 13 8 13 12 0 27 -12 15 -12 16 0 9 11
-6 13 -3 9 13 -3 12 -1 23 6 26 7 3 7 5 0 5 -5 1 -9 15 -8 31 1 17 -2 30 -7
30 -11 0 -7 23 6 32 6 5 5 8 -2 8 -7 0 -13 9 -13 20 0 11 -4 20 -9 20 -5 0 -8
8 -7 18 2 9 -4 22 -13 29 -14 11 -14 12 -1 13 12 0 11 3 -3 11 -9 6 -15 14
-12 20 4 5 1 9 -4 9 -6 0 -11 7 -11 15 0 8 -4 15 -10 15 -5 0 -10 5 -10 11 0
6 -8 18 -18 27 -11 11 -12 13 -2 8 8 -5 -14 18 -49 52 -35 34 -69 59 -75 55
-6 -3 -8 -3 -4 1 8 10 -14 36 -24 29 -5 -2 -8 1 -8 7 0 6 -4 8 -10 5 -5 -3
-10 -1 -10 5 0 6 -4 9 -9 6 -5 -4 -11 -2 -13 3 -1 5 -10 11 -18 13 -8 2 -21 9
-28 16 -7 6 -25 12 -38 12 -17 0 -23 4 -18 12 5 8 0 9 -15 5 -14 -3 -24 0 -28
9 -4 11 -9 12 -19 3 -11 -9 -14 -8 -14 1 0 7 -7 10 -15 6 -8 -3 -15 0 -15 7 0
8 -3 8 -9 -2 -6 -9 -11 -10 -15 -2 -4 6 -24 9 -46 7 -23 -2 -41 1 -44 7 -3 9
-5 8 -5 0 -1 -9 -8 -10 -24 -4 -14 5 -30 5 -40 0 -11 -7 -17 -6 -17 1 0 6 -5
8 -12 3 -19 -11 -38 -13 -38 -3 0 5 -13 5 -30 0 -19 -5 -30 -5 -30 1 0 6 -8 5
-20 -1 -11 -6 -20 -7 -20 -2 0 5 -7 9 -15 9 -8 0 -12 -4 -9 -9 7 -11 -3 -10
-28 3 -16 8 -19 8 -13 -1z m104 -375 c9 -5 12 -4 8 2 -7 11 161 11 180 0 6 -4
13 -3 15 3 2 7 14 7 37 0 19 -5 38 -7 42 -4 5 3 9 0 9 -5 0 -6 9 -11 20 -11
11 0 20 -5 20 -11 0 -5 4 -7 10 -4 5 3 23 -7 39 -24 16 -16 32 -27 35 -24 3 4
6 -1 6 -10 0 -9 7 -20 16 -25 9 -5 17 -13 17 -18 1 -5 5 -8 10 -6 4 1 6 -1 6
-5 -1 -5 -1 -10 1 -13 1 -3 3 -17 5 -33 3 -19 0 -25 -8 -20 -7 4 -6 0 2 -10
11 -14 11 -17 0 -17 -11 0 -11 -2 1 -10 12 -8 12 -10 1 -10 -11 0 -11 -3 0
-17 11 -13 11 -15 1 -9 -10 6 -13 2 -12 -15 3 -39 1 -51 -11 -43 -6 3 -3 -5 6
-20 16 -24 16 -26 1 -20 -14 5 -16 2 -10 -20 4 -18 2 -26 -7 -26 -11 0 -11 -3
1 -10 11 -7 11 -10 2 -10 -10 0 -10 -5 -1 -21 9 -17 8 -20 -2 -14 -9 6 -11 2
-7 -13 4 -12 3 -22 -1 -22 -12 0 -9 -34 3 -42 7 -5 3 -8 -8 -8 -15 0 -17 -3
-9 -11 18 -18 -22 -52 -46 -40 -10 6 -28 8 -40 6 -12 -2 -19 0 -16 4 2 5 -5 9
-18 9 -46 2 -119 11 -124 16 -3 2 -16 1 -29 -4 -16 -6 -24 -6 -24 1 0 6 -6 6
-19 -1 -14 -7 -20 -7 -23 2 -3 8 -9 8 -25 -1 -16 -8 -24 -8 -29 0 -4 8 -9 7
-15 -2 -7 -12 -9 -11 -9 0 0 11 -3 12 -11 4 -8 -8 -20 -8 -36 -2 -16 6 -22 6
-18 -1 4 -6 -5 -10 -22 -9 -29 1 -84 -9 -92 -17 -2 -2 -11 2 -19 9 -13 10 -14
9 -7 -2 6 -11 4 -13 -8 -8 -9 3 -19 2 -22 -3 -3 -5 -12 -7 -20 -4 -8 4 -12 10
-9 15 3 5 1 9 -3 9 -5 0 -9 18 -9 39 0 22 -7 47 -15 57 -9 11 -9 15 -1 10 6
-4 12 -2 12 3 0 6 -4 11 -10 11 -5 0 -10 5 -10 11 0 5 6 7 13 3 8 -6 8 -3 -1
9 -8 9 -11 20 -8 25 3 6 -1 15 -9 22 -12 10 -13 16 -3 27 7 9 8 17 2 21 -5 4
-10 27 -9 50 0 24 -4 46 -9 50 -5 3 -6 -1 -1 -8 5 -9 4 -11 -3 -6 -9 5 -9 13
-2 26 7 13 7 21 0 25 -6 4 -7 12 -3 18 4 7 9 23 11 37 2 14 12 32 24 41 11 9
18 21 14 28 -6 10 6 15 27 12 4 0 7 6 7 14 0 8 7 15 15 15 9 0 18 7 21 15 4 8
10 12 15 9 5 -3 9 0 9 6 0 6 4 9 9 5 5 -3 12 -1 16 5 4 6 11 8 16 5 5 -4 9 -2
9 2 0 5 19 10 42 12 23 1 44 3 45 5 6 5 39 0 52 -9z m425 -1187 c2 -10 0 -18
-6 -18 -5 0 -6 -4 -3 -10 3 -5 2 -10 -2 -10 -5 0 -14 -9 -21 -21 -11 -17 -11
-20 0 -14 7 3 5 0 -5 -8 -10 -9 -19 -19 -19 -24 -3 -28 -12 -43 -23 -39 -7 2
-16 2 -19 -1 -9 -9 -67 -9 -73 0 -2 4 -9 4 -15 1 -16 -10 -98 -11 -98 -1 0 4
-6 5 -12 1 -16 -10 -57 -11 -85 -2 -15 5 -23 3 -23 -3 0 -7 -6 -6 -17 2 -9 8
-14 10 -11 4 6 -10 -123 -11 -149 -1 -7 3 -13 2 -13 -3 0 -7 -50 -4 -79 5 -11
4 -11 7 0 21 10 12 10 14 2 9 -20 -12 -15 1 9 24 12 11 17 20 10 20 -6 0 -9 7
-6 15 3 8 11 13 17 12 7 -1 11 4 10 11 -2 6 2 12 8 12 5 0 7 4 4 10 -5 8 4 12
57 23 5 1 132 2 282 2 253 0 275 -1 280 -17z m-942 -244 c23 -1 35 3 31 9 -4
6 -1 7 8 1 20 -12 61 -12 78 0 11 8 13 8 7 -1 -4 -8 -2 -13 4 -13 14 0 10 -62
-5 -72 -5 -4 -1 -8 10 -8 17 0 17 -2 5 -10 -15 -9 -16 -13 -19 -47 0 -9 -4
-13 -7 -10 -4 3 -15 2 -25 -4 -13 -7 -19 -6 -19 1 0 6 -5 8 -12 4 -18 -11 -48
-12 -54 -2 -3 5 -12 3 -21 -3 -9 -8 -17 -9 -21 -3 -8 11 -22 12 -39 1 -8 -5
-13 -4 -13 3 0 7 -6 8 -19 1 -10 -6 -20 -8 -22 -6 -10 10 -59 13 -65 4 -3 -6
-16 -4 -31 6 -14 10 -23 12 -19 7 3 -6 3 -13 -2 -16 -5 -3 -8 10 -8 29 0 18 5
31 10 28 5 -3 6 0 4 8 -3 8 2 20 11 27 12 10 13 12 1 6 -13 -7 -13 -6 0 12 8
10 22 25 30 32 11 10 11 12 1 6 -8 -4 -12 -3 -8 2 3 5 40 9 81 9 47 -1 76 3
76 10 0 6 3 7 8 0 4 -5 24 -11 44 -11z m338 -165 c0 6 11 6 30 1 17 -5 30 -5
30 0 0 5 13 5 30 0 17 -5 30 -5 30 -1 0 4 20 5 45 1 25 -4 45 -3 45 2 0 5 5 6
11 2 15 -9 139 -11 139 -2 0 4 6 5 13 2 7 -2 35 -6 63 -8 37 -2 48 -6 45 -17
-2 -8 -3 -29 -2 -48 0 -19 -5 -41 -12 -50 -9 -12 -9 -13 1 -7 6 4 12 3 12 -3
0 -5 -5 -13 -10 -16 -7 -4 -7 -12 0 -25 7 -13 7 -21 0 -25 -5 -3 -10 -11 -10
-16 0 -6 6 -7 13 -3 8 5 8 2 -2 -9 -7 -9 -10 -17 -6 -17 4 0 1 -8 -6 -17 -10
-11 -10 -14 -1 -9 7 4 12 1 12 -9 0 -10 -5 -13 -12 -9 -8 5 -7 0 2 -11 11 -14
12 -19 2 -22 -6 -3 -9 -9 -6 -15 4 -5 7 -73 7 -149 1 -90 5 -139 12 -139 5 0
3 -5 -5 -10 -11 -7 -11 -10 -2 -10 10 0 10 -5 1 -21 -8 -17 -8 -20 1 -14 8 5
11 3 8 -6 -3 -8 -1 -22 4 -33 7 -12 7 -16 0 -12 -11 7 -9 -44 2 -63 4 -7 5
-18 2 -26 -3 -8 -2 -15 3 -15 12 0 9 -33 -4 -42 -6 -5 -6 -8 1 -8 7 0 15 -7
18 -16 4 -10 2 -13 -7 -9 -6 4 -3 -1 7 -9 11 -9 15 -16 10 -16 -6 0 -11 -7
-11 -15 0 -8 4 -15 9 -15 5 0 7 -4 3 -9 -3 -5 -1 -12 4 -15 5 -3 7 -15 4 -26
-3 -12 0 -20 6 -20 7 0 9 -4 6 -10 -3 -5 1 -24 10 -41 9 -17 11 -28 5 -24 -7
5 -7 0 2 -14 7 -12 16 -21 21 -21 4 0 5 -5 1 -11 -4 -7 3 -19 16 -29 57 -43
46 -45 -278 -44 -226 0 -307 3 -310 12 -2 7 -10 12 -18 12 -9 0 -12 4 -9 10 3
5 1 10 -4 10 -6 0 -11 7 -11 15 0 8 -5 15 -12 15 -6 0 -8 3 -5 7 4 3 1 13 -6
21 -10 13 -9 15 3 8 8 -4 7 -1 -4 8 -10 8 -16 22 -13 30 3 8 -1 17 -10 20 -12
5 -13 9 -4 20 9 11 8 15 -6 20 -15 6 -15 9 -3 17 11 8 12 12 2 16 -6 2 -10 9
-6 14 3 5 -1 9 -8 9 -9 0 -9 3 2 10 8 5 10 10 4 10 -6 0 -10 12 -9 28 1 15 -1
32 -5 37 -13 19 -20 46 -10 40 6 -3 10 -2 10 4 0 5 -5 13 -10 16 -7 4 -7 12 0
25 6 12 7 21 0 25 -5 3 -8 22 -8 43 1 20 -3 47 -10 58 -6 12 -8 24 -5 28 10
10 11 46 1 52 -5 3 -4 12 3 20 8 10 8 14 0 14 -13 0 -10 22 4 32 6 5 5 8 -3 8
-10 0 -10 5 -2 20 10 19 7 24 -15 21 -5 -1 -2 5 8 13 12 9 14 15 6 18 -9 3 -9
9 1 27 7 15 8 21 1 17 -6 -4 -11 -3 -11 3 0 5 5 13 11 17 8 5 8 9 -1 14 -9 6
-9 13 -1 29 7 11 8 21 3 21 -5 0 -9 7 -9 15 0 8 5 15 11 15 6 0 5 4 -3 9 -9 6
-10 10 -2 16 9 5 9 10 0 21 -9 11 -9 14 0 14 7 0 9 5 5 12 -11 17 -12 48 -3
48 5 0 6 14 3 30 -5 22 -3 30 7 30 11 0 11 2 -1 10 -12 8 -12 10 -1 10 11 0
11 3 1 15 -10 12 -10 15 1 15 11 0 11 2 -1 10 -11 7 -11 10 -2 10 7 0 11 4 8
9 -14 21 72 29 93 9 10 -11 11 -9 5 6 -6 16 -5 17 14 7 13 -7 22 -8 22 -2z
m-260 -211 c0 -5 5 -6 11 -2 8 5 10 -1 7 -20 -3 -14 -1 -26 4 -26 5 0 6 -5 3
-10 -4 -6 -12 -8 -18 -4 -7 3 -3 -2 7 -10 11 -9 14 -16 7 -16 -14 0 -11 -31 4
-42 6 -5 5 -8 -2 -8 -7 0 -13 -7 -13 -16 0 -9 5 -12 13 -8 8 5 8 2 -2 -9 -7
-9 -10 -17 -5 -17 5 0 2 -5 -6 -10 -8 -5 -10 -10 -4 -10 6 0 10 -17 9 -37 0
-21 3 -44 8 -50 6 -9 5 -13 -2 -13 -7 0 -9 -4 -6 -10 3 -5 0 -10 -7 -10 -8 0
-6 -5 5 -11 13 -8 15 -14 7 -30 -8 -14 -7 -19 2 -19 9 0 9 -3 -2 -10 -13 -9
-13 -10 0 -10 9 0 11 -3 5 -8 -12 -8 -15 -53 -4 -46 4 2 10 0 14 -6 3 -5 1
-10 -6 -10 -10 0 -10 -3 -2 -11 8 -8 8 -20 3 -35 -6 -14 -5 -26 0 -29 6 -4 8
-17 6 -31 -3 -13 0 -24 6 -24 7 0 6 -5 -1 -14 -9 -11 -9 -16 0 -22 8 -5 9 -3
4 6 -5 9 -4 11 3 6 9 -5 9 -13 1 -28 -8 -16 -8 -22 2 -28 7 -5 13 -20 13 -33
1 -14 -2 -23 -6 -21 -4 3 -8 0 -8 -6 0 -6 -4 -8 -10 -5 -5 3 -10 1 -10 -6 0
-8 -4 -8 -15 1 -11 9 -15 9 -15 1 0 -9 -5 -9 -21 0 -16 8 -20 8 -14 -1 6 -9 2
-9 -14 -1 -11 7 -21 8 -21 3 0 -4 -9 -8 -20 -8 -11 0 -20 4 -20 8 0 5 -8 5
-17 0 -20 -9 -55 -8 -72 2 -6 4 -11 2 -11 -5 0 -8 -4 -8 -15 1 -8 7 -15 9 -15
5 0 -4 -8 -1 -17 6 -13 11 -15 11 -9 1 7 -11 4 -11 -12 -1 -12 7 -19 16 -16
20 2 4 -4 12 -13 18 -14 8 -15 10 -3 11 9 0 11 3 5 8 -14 10 -39 55 -26 47 6
-3 11 -1 11 4 0 6 -4 11 -10 11 -5 0 -10 11 -10 25 0 14 -4 25 -8 25 -12 0 -9
40 3 40 5 0 2 5 -8 11 -14 8 -16 14 -6 25 8 10 8 14 1 14 -6 0 -9 6 -6 14 3 8
0 17 -6 21 -8 5 -8 10 0 20 8 10 8 15 0 20 -8 5 -8 11 1 21 9 11 9 14 -1 14
-9 0 -9 4 1 17 8 9 9 14 3 10 -7 -4 -11 7 -10 36 1 23 -2 50 -6 60 -6 12 -4
17 7 17 15 0 15 1 1 16 -19 19 -21 34 -3 34 8 0 7 4 -3 10 -11 7 -11 10 -2 10
10 0 10 5 2 20 -7 14 -7 20 0 20 6 0 8 11 4 27 -4 15 -7 33 -6 40 1 7 3 21 3
31 1 9 5 22 10 28 10 13 369 15 369 2z"/>
<path d="M1363 3715 c0 -8 4 -12 9 -9 5 3 6 10 3 15 -9 13 -12 11 -12 -6z"/>
</g>
</svg>
