<svg xmlns="http://www.w3.org/2000/svg" xml:space="preserve" width="30" height="30" style="enable-background:new 0 0 512 512" viewBox="0 0 511.999 511.999"><path fill="#77757e" d="M151.733 374.446h-41.381c-7.434 0-13.516-6.082-13.516-13.516V150.376c0-7.434 6.082-13.516 13.516-13.516h41.381c7.434 0 13.516 6.082 13.516 13.516V360.93c.001 7.434-6.082 13.516-13.516 13.516z" data-original="#77757e"/><path fill="#acaab1" d="M83.32 346.089H58.271c-7.434 0-13.516-6.082-13.516-13.516v-153.84c0-7.434 6.082-13.516 13.516-13.516H83.32c7.434 0 13.516 6.082 13.516 13.516v153.84c0 7.434-6.082 13.516-13.516 13.516z" data-original="#acaab1"/><path fill="#3e3b43" d="M0 225.427h44.759v60.448H0z" data-original="#3e3b43"/><path fill="#77757e" d="M360.267 136.86h41.381c7.434 0 13.516 6.082 13.516 13.516V360.93c0 7.434-6.082 13.516-13.516 13.516h-41.381c-7.434 0-13.516-6.082-13.516-13.516V150.376c0-7.434 6.082-13.516 13.516-13.516z" data-original="#77757e"/><path fill="#acaab1" d="M428.68 165.217h25.049c7.434 0 13.516 6.082 13.516 13.516v153.84c0 7.434-6.082 13.516-13.516 13.516H428.68c-7.434 0-13.516-6.082-13.516-13.516v-153.84c0-7.434 6.082-13.516 13.516-13.516z" data-original="#acaab1"/><path fill="#3e3b43" d="M467.24 225.427h44.759v60.448H467.24zm-301.99 0h181.5v60.448h-181.5z" data-original="#3e3b43"/><path fill="#2f2d30" d="M0 263.116h44.759v22.762H0zm467.24 0h44.759v22.762H467.24zm-301.99 0h181.5v22.762h-181.5z" data-original="#2f2d30"/><path fill="#57545c" d="M151.733 374.446h-41.381c-7.434 0-13.516-6.082-13.516-13.516v-49.208c0-7.434 6.082-13.516 13.516-13.516h41.381c7.434 0 13.516 6.082 13.516 13.516v49.208c.001 7.434-6.082 13.516-13.516 13.516zm249.915.693h-41.381c-7.434 0-13.516-6.082-13.516-13.516v-49.208c0-7.434 6.082-13.516 13.516-13.516h41.381c7.434 0 13.516 6.082 13.516 13.516v49.208c0 7.434-6.083 13.516-13.516 13.516z" data-original="#57545c"/><path fill="#77757e" d="M428.68 284.747h25.049c7.434 0 13.516 6.082 13.516 13.516v34.31c0 7.434-6.082 13.516-13.516 13.516H428.68c-7.434 0-13.516-6.082-13.516-13.516v-34.31c0-7.434 6.082-13.516 13.516-13.516zm-370.409 0H83.32c7.434 0 13.516 6.082 13.516 13.516v34.31c0 7.434-6.082 13.516-13.516 13.516H58.271c-7.434 0-13.516-6.082-13.516-13.516v-34.31c0-7.434 6.082-13.516 13.516-13.516z" data-original="#77757e" style="opacity:.43;enable-background:new"/></svg>